<svg width="56" height="56" viewBox="0 0 56 56" fill="none" xmlns="http://www.w3.org/2000/svg">
<path d="M20.018 31.495L27.0709 37.361C27.1509 37.429 27.2356 37.487 27.325 37.535L27.353 37.549L27.363 37.554L27.382 37.564L27.399 37.571L27.4109 37.577L27.433 37.587L27.44 37.59C27.6006 37.6573 27.766 37.6947 27.936 37.702H27.941L27.968 37.703H28.0639C28.2352 37.6957 28.4037 37.6571 28.561 37.589L28.565 37.587L28.59 37.577L28.6 37.572L28.618 37.563L28.638 37.553L28.646 37.55L28.672 37.536L28.6749 37.534C28.7657 37.4858 28.8509 37.4278 28.929 37.361L35.5229 31.877L38.951 34.14L28 45L16.6119 33.706L20.018 31.495ZM20.266 22.721L27.2029 27.183C27.4499 27.345 27.725 27.426 28 27.426C28.275 27.426 28.55 27.346 28.797 27.184L35.734 22.722L41.0379 25.431L28 36.274L14.962 25.43L20.266 22.721ZM28 11L42.827 16.46L28 25.996L13.174 16.459L28 11Z" fill="#FFADEF"/>
<path d="M28 11L42.827 16.46L28.01 25.99V11.03H27.918L28 11ZM35.734 22.722L41.038 25.431L28.01 36.266V27.427C28.269 27.425 28.527 27.352 28.761 27.207L28.797 27.184L35.734 22.722ZM35.523 31.877L38.952 34.14L28.011 44.99V37.703H28.033L28.061 37.702H28.065C28.2362 37.6951 28.4046 37.6568 28.562 37.589L28.567 37.587L28.592 37.576L28.602 37.572L28.62 37.563L28.639 37.554L28.647 37.55L28.674 37.536L28.677 37.535C28.767 37.487 28.8516 37.429 28.931 37.361L35.523 31.877Z" fill="#FFADEF"/>
<circle cx="19.5" cy="28.5" r="4" fill="white" stroke="#FFADEF"/>
<circle cx="18.5" cy="28.5" r="1.5" fill="black"/>
<circle cx="35.5" cy="25.5" r="4" fill="white" stroke="#FFADEF"/>
<circle cx="36.5" cy="25.5" r="1.5" fill="black"/>
<path d="M23.8807 40.8523C23.8807 40.2898 23.9773 39.7884 24.1705 39.348C24.3636 38.9105 24.6321 38.5625 24.9759 38.304C25.3224 38.0483 25.7244 37.9091 26.1818 37.8864L26.1818 38.9602C25.9006 38.983 25.6577 39.0795 25.4531 39.25C25.2514 39.4205 25.0952 39.6435 24.9844 39.919C24.8736 40.1946 24.8182 40.5 24.8182 40.8352C24.8182 41.2102 24.8835 41.5426 25.0142 41.8324C25.1449 42.1222 25.3267 42.3494 25.5597 42.5142C25.7926 42.679 26.0625 42.7614 26.3693 42.7614C26.6903 42.7614 26.973 42.6818 27.2173 42.5227C27.4645 42.3636 27.6577 42.1307 27.7969 41.8239C27.9361 41.517 28.0057 41.142 28.0057 40.6989L28.0057 40L28.9432 40L28.9432 40.6989C28.9432 41.0455 29.0057 41.3494 29.1307 41.6108C29.2557 41.875 29.4318 42.081 29.6591 42.2287C29.8864 42.3793 30.1534 42.4545 30.4602 42.4545C30.7557 42.4545 31.0128 42.3892 31.2315 42.2585C31.4503 42.1278 31.6207 41.9432 31.7429 41.7045C31.8651 41.4687 31.9261 41.1903 31.9261 40.8693C31.9261 40.5682 31.8707 40.2841 31.7599 40.017C31.652 39.7528 31.4943 39.5369 31.2869 39.3693C31.0824 39.2017 30.8352 39.1108 30.5455 39.0966L30.5455 38.0739C31.0028 38.0909 31.4034 38.2287 31.7472 38.4872C32.0938 38.7457 32.3636 39.0838 32.5568 39.5014C32.75 39.9219 32.8466 40.3835 32.8466 40.8864C32.8466 41.4261 32.7372 41.8892 32.5185 42.2756C32.3026 42.6619 32.017 42.9588 31.6619 43.1662C31.3068 43.3736 30.9233 43.4773 30.5114 43.4773C30.0199 43.4773 29.6009 43.348 29.2543 43.0895C28.9077 42.8338 28.6676 42.4858 28.5341 42.0455L28.4659 42.0455C28.375 42.5966 28.1406 43.027 27.7628 43.3366C27.3878 43.6463 26.9233 43.8011 26.3693 43.8011C25.8949 43.8011 25.4687 43.6719 25.0909 43.4134C24.7159 43.1577 24.4205 42.8082 24.2045 42.3651C23.9886 41.9219 23.8807 41.4176 23.8807 40.8523Z" fill="black"/>
<path d="M38.6319 9.45245L39.6809 16.3008L33.2256 13.7851L38.6319 9.45245Z" fill="#FFADEF"/>
<path d="M37.7542 11.6032L38.1898 14.4472L35.509 13.4025L37.7542 11.6032Z" fill="white"/>
<path d="M16.727 9.45245L15.678 16.3008L22.1333 13.7851L16.727 9.45245Z" fill="#FFADEF"/>
<path d="M17.6047 11.6032L17.169 14.4472L19.8499 13.4025L17.6047 11.6032Z" fill="white"/>
</svg>
